<svg width="16" height="16" viewBox="0 0 12 12" fill="none" xmlns="http://www.w3.org/2000/svg">
<path d="M4.34102 0.346436C5.4903 0.346436 6.5925 0.802982 7.40515 1.61564C8.21781 2.4283 8.67436 3.5305 8.67436 4.67977C8.67436 5.7531 8.28102 6.73977 7.63436 7.49977L7.66791 7.53332C7.76168 7.62709 7.88886 7.67977 8.02146 7.67977H8.13392C8.26653 7.67977 8.3937 7.73245 8.48747 7.82622L11.3208 10.6595C11.5161 10.8548 11.5161 11.1714 11.3208 11.3667L11.0279 11.6595C10.8326 11.8548 10.5161 11.8548 10.3208 11.6595L7.48747 8.82622C7.3937 8.73245 7.34102 8.60527 7.34102 8.47266V8.36021C7.34102 8.2276 7.28835 8.10042 7.19458 8.00666L7.16102 7.9731C6.40102 8.61977 5.41436 9.0131 4.34102 9.0131C3.19175 9.0131 2.08955 8.55656 1.27689 7.7439C0.464237 6.93124 0.00769043 5.82904 0.00769043 4.67977C0.00769043 3.5305 0.464237 2.4283 1.27689 1.61564C2.08955 0.802982 3.19175 0.346436 4.34102 0.346436ZM4.34102 1.67977C2.67436 1.67977 1.34102 3.0131 1.34102 4.67977C1.34102 6.34644 2.67436 7.67977 4.34102 7.67977C6.00769 7.67977 7.34102 6.34644 7.34102 4.67977C7.34102 3.0131 6.00769 1.67977 4.34102 1.67977Z" fill="#8B8E92"/>
</svg>
