<svg width="4" height="11" viewBox="0 0 4 14" fill="none" xmlns="http://www.w3.org/2000/svg">
<path d="M2.00016 10.3334C2.44219 10.3334 2.86611 10.509 3.17867 10.8215C3.49123 11.1341 3.66683 11.558 3.66683 12C3.66683 12.4421 3.49123 12.866 3.17867 13.1786C2.86611 13.4911 2.44219 13.6667 2.00016 13.6667C1.55814 13.6667 1.13421 13.4911 0.821652 13.1786C0.509091 12.866 0.333496 12.4421 0.333496 12C0.333496 11.558 0.509091 11.1341 0.821652 10.8215C1.13421 10.509 1.55814 10.3334 2.00016 10.3334ZM2.00016 5.33337C2.44219 5.33337 2.86611 5.50897 3.17867 5.82153C3.49123 6.13409 3.66683 6.55801 3.66683 7.00004C3.66683 7.44207 3.49123 7.86599 3.17867 8.17855C2.86611 8.49111 2.44219 8.66671 2.00016 8.66671C1.55814 8.66671 1.13421 8.49111 0.821652 8.17855C0.509091 7.86599 0.333496 7.44207 0.333496 7.00004C0.333496 6.55801 0.509091 6.13409 0.821652 5.82153C1.13421 5.50897 1.55814 5.33337 2.00016 5.33337M2.00016 0.333374C2.44219 0.333374 2.86611 0.508969 3.17867 0.821529C3.49123 1.13409 3.66683 1.55801 3.66683 2.00004C3.66683 2.44207 3.49123 2.86599 3.17867 3.17855C2.86611 3.49111 2.44219 3.66671 2.00016 3.66671C1.55814 3.66671 1.13421 3.49111 0.821652 3.17855C0.509091 2.86599 0.333496 2.44207 0.333496 2.00004C0.333496 1.55801 0.509091 1.13409 0.821652 0.821529C1.13421 0.508969 1.55814 0.333374 2.00016 0.333374Z" fill="white"/>
</svg>
